<?xml version="1.0" encoding="utf-8"?>
<!-- Generator: Adobe Illustrator 24.2.1, SVG Export Plug-In . SVG Version: 6.00 Build 0)  -->
<svg version="1.1" id="Layer_1" xmlns="http://www.w3.org/2000/svg" xmlns:xlink="http://www.w3.org/1999/xlink" x="0px" y="0px"
	 viewBox="0 0 20 25" style="enable-background:new 0 0 20 25;" xml:space="preserve">
<g>
	<path d="M9.9,6L9.9,6c1,0,2,0.4,2.7,1.2L14,5.8C12.9,4.6,11.4,4,9.9,4l0,0c-1.6,0-3,0.6-4.2,1.8c-2.3,2.3-2.3,6.1,0,8.5
		C6.8,15.4,8.3,16,9.9,16s3-0.6,4.2-1.8l-1.4-1.4c-1.5,1.5-4,1.5-5.4,0c-1.5-1.6-1.5-4.1,0-5.7C7.9,6.4,8.8,6,9.9,6z"/>
	<path d="M10,0C4.5,0,0,4.5,0,10s4.5,10,10,10s10-4.5,10-10S15.5,0,10,0z M10,18c-4.4,0-8-3.6-8-8s3.6-8,8-8s8,3.6,8,8
		S14.4,18,10,18z"/>
</g>
</svg>
