<?xml version="1.0" encoding="utf-8"?>
<!-- Generator: Adobe Illustrator 24.2.1, SVG Export Plug-In . SVG Version: 6.00 Build 0)  -->
<svg version="1.1" id="Layer_1" xmlns="http://www.w3.org/2000/svg" xmlns:xlink="http://www.w3.org/1999/xlink" x="0px" y="0px"
	 viewBox="0 0 24 30" style="enable-background:new 0 0 24 30;" xml:space="preserve">
<path d="M22.9,10.3c-0.9-6-6.6-10.1-12.6-9.1S0.2,7.7,1.1,13.7C2,19.1,6.6,23,12,23c1.9,0,3.7-0.5,5.4-1.4c0.5-0.3,0.7-0.9,0.4-1.4
	s-0.9-0.7-1.4-0.4c-4.3,2.4-9.8,0.9-12.3-3.4C2.1,12.7,2.8,8.1,6,5.3c1.9-1.7,4.4-2.5,7-2.3c4.9,0.5,8.5,5,8,9.9
	c-0.1,0.6-0.2,1.2-0.4,1.8c-0.3,0.7-1,1.2-1.7,1.2c-1,0-1.8-0.8-1.8-1.8V8c0-0.6-0.4-1-1-1c-0.6,0-1,0.4-1,1v0c-0.9-0.7-1.9-1-3-1
	c-2.8,0-5,2.2-5,5s2.2,5,5,5c1.3,0,2.5-0.5,3.4-1.3c0.6,1.4,2,2.3,3.5,2.3c1.6,0,3.1-1,3.6-2.6C23,13.8,23.1,12,22.9,10.3z M12,15
	c-1.7,0-3-1.3-3-3s1.3-3,3-3s3,1.3,3,3S13.7,15,12,15z"/>
</svg>
