<?xml version="1.0" encoding="utf-8"?>
<!-- Generator: Adobe Illustrator 24.2.1, SVG Export Plug-In . SVG Version: 6.00 Build 0)  -->
<svg version="1.1" id="Layer_1" xmlns="http://www.w3.org/2000/svg" xmlns:xlink="http://www.w3.org/1999/xlink" x="0px" y="0px"
	 viewBox="0 0 97.8 91.7" style="enable-background:new 0 0 97.8 91.7;" xml:space="preserve">
<style type="text/css">
	.st0{display:none;fill:#FFFFFF;}
</style>
<g>
	<path class="st0" d="M65.8-40.8C81.8,4.4,97.8,49.6,113.9,94.8c-28.6,10.2-57.3,20.3-86,30.5C12,80.1-4.1,34.9-20.1-10.4
		C8.5-20.5,37.1-30.7,65.8-40.8z M18.8,40.8L18.8,40.8c0.2,0.7,0.5,1.4,0.8,2.1c1.5,3.1,3.1,5.9,5.6,8.2c3.5,3,7.4,3.5,11.3,1.2
		c1.3-0.7,2.5-1.6,3.6-2.6c3.4-3,6.1-6.7,8.5-10.5c0.7-1,1.3-2.1,1.9-3.2c-2.7,0-5.2,0-7.7,0c-0.3,0-0.7,0.4-0.9,0.7
		c-1.4,2.3-2.4,4.7-4,6.9c-1.4,1.9-3.1,3.8-5,5.2c-2.9,2.2-6,1.9-8.7-0.4c-1.2-1-2.1-2.3-3.1-3.4C20.3,43.6,19.6,42.2,18.8,40.8z
		 M67.1,36c-2.4-0.1-4.4,0-6.5,0c-0.4,0-0.9,0.3-1.1,0.7c-1.5,2.1-2.8,4.4-4.3,6.5c-2.1,3-4.6,5.9-7.7,8c-0.9,0.6-1.9,1.1-2.8,1.7
		c2.6,1.2,5.4,0.9,8.1-0.6C59.4,48.6,63.1,42.3,67.1,36z M36.3,53.2c1.3,0.3,2.3,0.5,3.3,0.5c2.2,0.2,4.1-0.7,5.9-1.8
		c3.2-2,5.7-4.7,7.9-7.6c2-2.6,3.7-5.4,5.7-8.3c-2.3,0-4.2,0.1-6.1,0c-0.9-0.1-1.4,0.3-1.9,1C47.2,43.3,43.3,49.4,36.3,53.2z
		 M39,56.3c-0.8-0.4-1.7-0.8-2.6-1.2c-0.2,0.4-0.5,0.9-0.8,1.4c-0.6-0.2-1.1-0.5-1.4-0.6c-0.5,0.9-1,1.7-1.5,2.5
		c0.9,0.5,1.8,0.9,2.6,1.4c0.3-0.5,0.6-1.1,0.9-1.6c0.6,0.3,1.1,0.5,1.6,0.7C38.2,58.1,38.6,57.2,39,56.3z M28.6,46.5
		c0.8,0.4,1.6,0.9,2.3,1.2c0.5-0.9,1-1.7,1.4-2.4c-0.9-0.5-1.7-0.9-2.5-1.3C29.3,44.8,29,45.6,28.6,46.5z M69.1,33.3
		c-0.5,0.9-0.9,1.7-1.3,2.4c0.8,0.4,1.6,0.9,2.4,1.3c0.5-0.9,0.9-1.8,1.3-2.7C70.8,34,69.9,33.6,69.1,33.3z"/>
	<path d="M18.8,40.8c0.8,1.4,1.5,2.8,2.5,4.1c0.9,1.3,1.9,2.5,3.1,3.4c2.7,2.4,5.8,2.6,8.7,0.4c1.9-1.4,3.6-3.3,5-5.2
		c1.6-2.1,2.6-4.5,4-6.9c0.2-0.3,0.6-0.7,0.9-0.7c2.5,0,5,0,7.7,0c-0.7,1.2-1.4,2.2-1.9,3.2c-2.4,3.8-5.1,7.5-8.5,10.5
		c-1.1,0.9-2.4,1.8-3.6,2.6c-4,2.3-7.9,1.8-11.3-1.2c-2.5-2.3-4.3-5.1-5.6-8.2c-0.3-0.7-0.6-1.4-0.9-2.1
		C18.8,40.8,18.8,40.8,18.8,40.8z"/>
	<path d="M67.1,36c-4,6.4-7.7,12.6-14.2,16.4c-2.7,1.5-5.6,1.8-8.1,0.6c1-0.6,1.9-1.1,2.8-1.7c3.1-2.2,5.5-5,7.7-8
		c1.5-2.1,2.8-4.4,4.3-6.5c0.2-0.3,0.7-0.7,1.1-0.7C62.7,35.9,64.7,36,67.1,36z"/>
	<path d="M36.3,53.2c7-3.8,11-9.9,14.8-16.2c0.5-0.8,1-1.1,1.9-1c1.9,0.1,3.8,0,6.1,0c-2,2.9-3.8,5.7-5.7,8.3
		c-2.1,2.9-4.7,5.7-7.9,7.6c-1.8,1.1-3.8,1.9-5.9,1.8C38.6,53.6,37.6,53.4,36.3,53.2z"/>
	<path d="M39,56.3c-0.4,0.9-0.8,1.7-1.3,2.6c-0.5-0.2-1-0.4-1.6-0.7c-0.3,0.5-0.6,1-0.9,1.6c-0.9-0.5-1.7-0.9-2.6-1.4
		c0.5-0.8,0.9-1.6,1.5-2.5c0.4,0.2,0.9,0.4,1.4,0.6c0.3-0.5,0.6-1,0.8-1.4C37.3,55.6,38.1,56,39,56.3z"/>
	<path d="M28.6,46.5c0.4-0.9,0.8-1.7,1.2-2.5c0.8,0.4,1.6,0.8,2.5,1.3c-0.4,0.7-0.9,1.5-1.4,2.4C30.2,47.3,29.4,46.9,28.6,46.5z"/>
	<path d="M69.1,33.3c0.7,0.3,1.6,0.7,2.5,1.1c-0.5,0.9-0.9,1.8-1.3,2.7c-0.8-0.5-1.6-0.9-2.4-1.3C68.3,35,68.7,34.1,69.1,33.3z"/>
</g>
</svg>
